<svg width="27" height="24" viewBox="0 0 27 24" fill="none" xmlns="http://www.w3.org/2000/svg">
<path d="M13.4997 0C6.04425 0 0 6.04425 0 13.4997C0 17.7412 1.95784 21.5253 5.01677 24L5.94401 19.4312C4.07701 17.4577 3.17327 15.2602 2.85062 14.4363C2.58435 14.6901 2.4011 15.0284 2.35098 15.4121C2.2382 15.2022 2.18652 14.9579 2.21471 14.7042C2.29146 14.0181 2.93206 13.5216 3.64472 13.5968C3.9705 13.6313 4.25556 13.7785 4.46075 13.9946C4.39496 13.9806 4.32761 13.968 4.2587 13.9618C3.94857 13.9289 3.64942 13.9774 3.38158 14.0902C3.93604 15.1208 5.98003 18.3567 10.3672 19.5706C12.3908 20.1297 14.546 20.1297 16.5696 19.5706C20.9567 18.3567 23.0023 15.1208 23.5552 14.0902C23.2873 13.979 22.9882 13.9289 22.6781 13.9618C22.6091 13.9696 22.5418 13.9806 22.476 13.9946C22.6812 13.7785 22.9663 13.6313 23.292 13.5968C24.0047 13.5216 24.6453 14.0181 24.7221 14.7042C24.7502 14.9579 24.6986 15.2007 24.5858 15.4121C24.5357 15.0284 24.3524 14.6901 24.0861 14.4363C23.7666 15.2524 22.8754 17.4185 21.0429 19.3779L21.9811 24.0016C25.0416 21.5269 26.9978 17.7427 26.9978 13.5013C26.9978 6.04425 20.9552 0 13.4997 0ZM13.4997 5.0575C15.3573 5.0575 16.8688 6.91979 16.8688 9.20969H15.6314C15.6314 7.60269 14.6744 6.29485 13.4981 6.29485C12.3219 6.29485 11.3649 7.60269 11.3649 9.20969H10.1291C10.1291 6.91979 11.6405 5.0575 13.4997 5.0575ZM16.4051 18.6653C15.4513 18.9284 14.4645 19.0631 13.4684 19.0631C12.4722 19.0631 11.4855 18.93 10.5316 18.6653C8.81655 18.1907 7.48052 17.3919 6.46557 16.5461L7.81414 9.89415H19.1821L20.5213 16.5007C19.5017 17.3621 18.15 18.1813 16.4051 18.6653Z" fill="white"/>
</svg>
